<?xml version="1.0" encoding="UTF-8" standalone="no"?>
<svg
   xmlns:figma="http://www.figma.com/figma/ns"
   xmlns:dc="http://purl.org/dc/elements/1.1/"
   xmlns:cc="http://creativecommons.org/ns#"
   xmlns:rdf="http://www.w3.org/1999/02/22-rdf-syntax-ns#"
   xmlns:svg="http://www.w3.org/2000/svg"
   xmlns="http://www.w3.org/2000/svg"
   xmlns:sodipodi="http://sodipodi.sourceforge.net/DTD/sodipodi-0.dtd"
   xmlns:inkscape="http://www.inkscape.org/namespaces/inkscape"
   width="806.12921"
   height="576.44818"
   viewBox="0 0 806.12921 576.44818"
   version="1.1"
   id="svg4773"
   sodipodi:docname="lotus2.svg"
   inkscape:version="0.92.1 r">
  <metadata
     id="metadata4777">
    <rdf:RDF>
      <cc:Work
         rdf:about="">
        <dc:format>image/svg+xml</dc:format>
        <dc:type
           rdf:resource="http://purl.org/dc/dcmitype/StillImage" />
        <dc:title>FINAL LOGO</dc:title>
      </cc:Work>
    </rdf:RDF>
  </metadata>
  <sodipodi:namedview
     pagecolor="#ffffff"
     bordercolor="#666666"
     borderopacity="1"
     objecttolerance="10"
     gridtolerance="10"
     guidetolerance="10"
     inkscape:pageopacity="0"
     inkscape:pageshadow="2"
     inkscape:window-width="1424"
     inkscape:window-height="909"
     id="namedview4775"
     showgrid="false"
     fit-margin-top="0"
     fit-margin-left="0"
     fit-margin-right="0"
     fit-margin-bottom="0"
     inkscape:zoom="0.468108"
     inkscape:cx="179.39949"
     inkscape:cy="259.73382"
     inkscape:window-x="79"
     inkscape:window-y="23"
     inkscape:window-maximized="0"
     inkscape:current-layer="Canvas"
     inkscape:lockguides="false" />
  <title
     id="title4707">FINAL LOGO</title>
  <desc
     id="desc4709">Created using Figma</desc>
  <g
     id="Canvas"
     transform="matrix(3,0,0,3,-7124.4194,-3164.1205)"
     figma:type="canvas">
    <path
       style="fill:#acbba4;fill-opacity:1;stroke-width:0.1600645"
       d="m 2521.6752,1246.7822 c -41.3222,-1.2109 -73.5232,-6.8321 -85.7776,-14.9736 -1.7091,-1.1355 -3.3966,-2.8395 -4.0885,-4.1286 -0.5258,-0.9796 -0.5585,-1.1296 -0.5585,-2.5614 0,-1.3538 0.051,-1.6245 0.4639,-2.4658 0.5484,-1.1172 2.2642,-2.9785 3.7574,-4.0761 1.7664,-1.2984 1.3367,-1.2955 5.2611,-0.035 1.9146,0.6149 4.0159,1.2838 4.6696,1.4863 0.6536,0.2025 1.2111,0.4402 1.2388,0.5282 0.028,0.088 -1.0824,0.7004 -2.467,1.3607 -2.4349,1.1613 -4.5426,2.3992 -4.9675,2.9175 -0.1755,0.214 -0.1162,0.3257 0.4001,0.7541 0.8007,0.6644 4.1466,2.3549 6.4476,3.2576 11.1712,4.3826 31.3822,7.9563 54.4949,9.6357 12.1831,0.8852 19.4479,1.1191 34.7294,1.1179 13.2813,0 17.7122,-0.1028 27.8476,-0.6392 19.2761,-1.0203 37.3617,-3.1423 51.694,-6.0653 3.9458,-0.8048 7.5938,-1.6316 7.7097,-1.7475 0.1214,-0.1215 -0.068,-0.1634 -8.83,-1.9504 -4.5772,-0.9336 -8.4483,-1.7338 -8.6023,-1.7782 -0.3955,-0.1141 -0.3649,-0.4471 0.3601,-3.921 0.3521,-1.6872 0.6402,-3.0876 0.6402,-3.1119 0,-0.082 1.4868,-0.5294 9.2825,-2.7926 9.3347,-2.71 8.8645,-2.5622 8.694,-2.7328 -0.2118,-0.2118 -9.2307,-1.9679 -13.8951,-2.7056 -7.7788,-1.2301 -16.7466,-2.2505 -25.3672,-2.8864 -5.2859,-0.3899 -5.6433,-0.4337 -5.5611,-0.6803 0.034,-0.1006 1.2099,-0.8709 2.6141,-1.7117 1.4043,-0.8408 3.5651,-2.1951 4.8019,-3.0095 1.8201,-1.1985 2.3621,-1.4808 2.8435,-1.4808 0.3272,0 2.3746,0.1816 4.55,0.4035 14.5671,1.486 26.5828,3.5176 36.524,6.1755 5.7017,1.5244 13.0354,4.222 12.9303,4.7564 -0.029,0.1477 -4.1572,1.9994 -10.8897,4.8847 -5.9637,2.5557 -10.843,4.6984 -10.843,4.7616 0,0.063 0.1621,0.1557 0.3601,0.2055 0.574,0.1445 19.6761,8.2353 19.8471,8.4063 0.085,0.085 0.1103,0.226 0.056,0.3134 -0.1787,0.2892 -3.9691,1.8045 -7.3,2.9183 -18.8328,6.2973 -48.7334,10.4148 -83.6227,11.5154 -4.4179,0.1393 -25.2434,0.1784 -29.448,0.055 z"
       id="path6144"
       inkscape:connector-curvature="0"
       sodipodi:nodetypes="cccscccccccccccccccccssccccccsccccscsccccc" />
    <path
       inkscape:connector-curvature="0"
       id="path4578"
       d="m 2480.3831,1221.6907 c -5.4734,-0.2595 -13.1156,-1.3589 -20.6261,-2.9675 -31.0937,-6.6593 -53.9506,-19.6379 -68.2042,-38.7278 -8.2427,-11.0393 -13.5536,-24.3846 -15.3537,-38.5805 -0.9414,-7.4238 -0.9675,-15.5593 -0.073,-22.8122 0.5162,-4.1866 1.6,-9.7486 1.9239,-9.8729 0.3889,-0.1493 17.5369,12.0901 30.9539,22.0934 43.1627,32.1808 72.7437,58.93 82.9685,75.026 3.5522,5.592 4.8291,10.1827 3.4521,12.4113 -1.2338,1.997 -4.396,3.1075 -9.7816,3.4351 -1.4404,0.088 -2.6549,0.1488 -2.6989,0.136 -0.044,-0.013 -1.1963,-0.076 -2.5607,-0.1409 z m 31.0365,0 c -4.3893,-0.2588 -7.6988,-1.3162 -9.0144,-2.8801 -1.0489,-1.2468 -1.1864,-3.6452 -0.3528,-6.1532 1.4997,-4.5119 5.7539,-10.8131 12.3378,-18.2744 4.3455,-4.9246 13.6002,-14.0627 20.8878,-20.6246 19.8743,-17.8951 49.5768,-41.032 80.3286,-62.5723 1.9732,-1.3822 3.6656,-2.4875 3.761,-2.4564 0.5061,0.1653 1.8598,8.0458 2.3567,13.7196 0.2642,3.0164 0.2654,11.5944 0,14.5678 -1.8284,20.6481 -9.6887,37.9945 -23.4691,51.7925 -10.3859,10.3991 -23.3967,18.2705 -39.9459,24.1667 -15.5381,5.5361 -36.0731,9.3523 -46.8919,8.7144 z m -8.3052,-22.2181 c -0.012,-0.8872 1.9702,-8.7534 3.3537,-13.3093 6.5887,-21.6966 19.1985,-51.4345 36.8256,-86.8463 6.2514,-12.5588 15.7415,-30.8164 16.018,-30.8164 0.2133,0 3.1094,3.6484 4.9725,6.2641 4.9437,6.941 9.4813,15.8889 12.1872,24.033 2.1471,6.4619 3.5759,13.5411 4.0936,20.2819 0.1812,2.3585 0.2259,9.7506 0.064,10.5606 -0.087,0.4339 -0.6243,0.9038 -3.721,3.2527 -8.0134,6.0781 -19.4904,15.1376 -26.4258,20.8593 -22.7618,18.7784 -38.0179,33.5991 -47.1233,45.7783 -0.2354,0.3147 -0.2395,0.3137 -0.2445,-0.058 z m -10.5758,-1.9534 c -3.5454,-4.569 -6.9773,-8.4069 -12.711,-14.2147 -13.9769,-14.1575 -33.4215,-30.709 -58.7564,-50.0144 l -4.337,-3.3048 -0.1033,-1.3267 c -0.2591,-3.3303 -0.035,-9.0394 0.5326,-13.5732 1.8717,-14.9467 7.9038,-29.7078 17.2379,-42.1825 1.5394,-2.0574 3.366,-4.2916 3.5733,-4.3706 0.1608,-0.061 2.8559,4.9524 8.2009,15.2564 3.0222,5.8264 12.074,23.9929 14.9161,29.936 15.7109,32.8535 26.3449,59.3095 31.3108,77.8972 0.8685,3.2511 1.9316,7.8547 1.8359,7.9504 -0.033,0.033 -0.798,-0.8908 -1.6998,-2.0531 z m 6.022,-3.3687 c -0.041,-0.1227 -0.3357,-1.2316 -0.6544,-2.4642 -4.0671,-15.7307 -12.4116,-37.6178 -24.1805,-63.4239 -1.0917,-2.3938 -1.9849,-4.4996 -1.9849,-4.6795 0,-0.3239 1.3306,-5.4156 2.2624,-8.6575 4.7883,-16.6585 10.9443,-33.6429 17.2639,-47.6308 2.206,-4.8828 5.8771,-11.9211 6.218,-11.9211 0.3171,0 5.9214,11.1752 8.8237,17.5951 4.7652,10.5403 9.4232,22.341 13.1183,33.2338 2.4499,7.2222 5.6082,17.661 5.6082,18.5363 0,0.204 -0.9641,2.4919 -2.1424,5.0841 -11.3312,24.9287 -19.8313,47.3882 -23.6245,62.4226 -0.2775,1.0999 -0.5334,2.0287 -0.5687,2.064 -0.035,0.035 -0.098,-0.036 -0.1391,-0.1589 z"
       style="fill:#e48594;stroke:#e48594;stroke-width:1.33333337;stroke-miterlimit:4;stroke-dasharray:none;stroke-opacity:1" />
  </g>
  <defs
     id="defs4771" />
</svg>
