<svg width="762" height="2631" viewBox="0 0 762 2631" version="1.1" xmlns="http://www.w3.org/2000/svg" xmlns:xlink="http://www.w3.org/1999/xlink" xmlns:figma="http://www.figma.com/figma/ns">
<title>Flower Timeline</title>
<desc>Created using Figma</desc>
<g id="Canvas" transform="matrix(3 0 0 3 852 1293)" figma:type="canvas">
<g id="Flower Timeline" figma:type="frame">
<g id="Initial Flower" figma:type="frame">
<g id="lotus" figma:type="frame">
<g id="Vector 2" figma:type="vector">
<use xlink:href="#path0_fill" transform="matrix(0.995839 0.0911248 -0.0911248 0.995839 -183.356 -431)" fill="#F4ACB7"/>
<use xlink:href="#path1_stroke" transform="matrix(0.995839 0.0911248 -0.0911248 0.995839 -183.356 -431)" fill="#FFFFFF"/>
</g>
<g id="Vector" figma:type="vector">
<use xlink:href="#path2_fill" transform="matrix(-0.936315 0.351163 0.351163 0.936315 -81.1454 -411)" fill="#F4ACB7"/>
<use xlink:href="#path3_stroke" transform="matrix(-0.936315 0.351163 0.351163 0.936315 -81.1454 -411)" fill="#FFFFFF"/>
</g>
<g id="Vector" figma:type="vector">
<use xlink:href="#path2_fill" transform="matrix(0.892837 0.45038 -0.45038 0.892837 -219.832 -418)" fill="#F4ACB7"/>
<use xlink:href="#path3_stroke" transform="matrix(0.892837 0.45038 -0.45038 0.892837 -219.832 -418)" fill="#FFFFFF"/>
</g>
<g id="Vector" figma:type="vector">
<use xlink:href="#path2_fill" transform="translate(-283 -374)" fill="#F4ACB7"/>
<use xlink:href="#path3_stroke" transform="translate(-283 -374)" fill="#FFFFFF"/>
</g>
<g id="Vector" figma:type="vector">
<use xlink:href="#path2_fill" transform="matrix(-1 -5.55112e-17 -5.55112e-17 1 -31.1292 -374)" fill="#F4ACB7"/>
<use xlink:href="#path3_stroke" transform="matrix(-1 -5.55112e-17 -5.55112e-17 1 -31.1292 -374)" fill="#FFFFFF"/>
</g>
</g>
<g id="Vector 3" figma:type="vector">
<use xlink:href="#path4_stroke" transform="translate(-171 -199)" fill="#9D8189"/>
</g>
</g>
</g>
</g>
<defs>
<path id="path0_fill" d="M 50.3932 171.681C 20.3932 147.348 -37.3166 80.8 34.6834 3.9813e-06C 52.0167 28.6667 91.9932 101.281 50.3932 171.681Z"/>
<path id="path1_stroke" d="M 50.3932 171.681L 50.0782 172.07L 50.5286 172.435L 50.8237 171.936L 50.3932 171.681ZM 34.6834 3.9813e-06L 35.1113 -0.258706L 34.7608 -0.83838L 34.3101 -0.332637L 34.6834 3.9813e-06ZM 50.7082 171.293C 35.7312 159.146 13.8963 136.54 4.76613 106.868C -4.35592 77.2696 -0.835885 40.6121 35.0567 0.332644L 34.3101 -0.332637C -1.79731 40.1879 -5.42237 77.2045 3.81048 107.163C 13.0352 137.049 35.0552 159.883 50.0782 172.07L 50.7082 171.293ZM 34.2555 0.258714C 51.597 28.9389 91.399 101.304 49.9628 171.427L 50.8237 171.936C 92.5874 101.259 52.4364 28.3945 35.1113 -0.258706L 34.2555 0.258714Z"/>
<path id="path2_fill" d="M 3.6122 0C -6.05447 32 -2.18781 100.4 90.6122 118C 183.412 135.6 71.2789 46.6667 3.6122 0Z"/>
<path id="path3_stroke" d="M 3.6122 0L 3.89607 -0.411606L 3.33178 -0.800767L 3.13356 -0.144589L 3.6122 0ZM 90.6122 118L 90.7054 117.509L 90.6122 118ZM 3.13356 -0.144589C -1.72758 15.9475 -3.18757 41.1817 8.23776 64.6191C 19.6767 88.0844 43.9916 109.667 90.519 118.491L 90.7054 117.509C 44.4328 108.733 20.4144 87.3156 9.13664 64.1809C -2.1547 41.0183 -0.71469 16.0525 4.09084 0.144589L 3.13356 -0.144589ZM 90.519 118.491C 102.135 120.694 110.599 121.242 116.366 120.392C 122.128 119.541 125.364 117.258 126.172 113.66C 126.959 110.155 125.369 105.623 122.132 100.438C 118.884 95.2382 113.883 89.2331 107.647 82.7533C 82.7272 56.8592 37.7381 22.9278 3.89607 -0.411606L 3.32833 0.411606C 37.153 23.7388 82.0638 57.6075 106.927 83.4467C 113.138 89.9003 118.074 95.8243 121.284 100.968C 124.504 106.127 125.889 110.354 125.196 113.44C 124.524 116.434 121.824 118.575 116.22 119.402C 110.621 120.228 102.289 119.706 90.7054 117.509L 90.519 118.491Z"/>
<path id="path4_stroke" d="M 14.1351 441.5L 12.6646 441.204L 12.6593 441.23L 12.6549 441.257L 14.1351 441.5ZM 12.6933 -0.413789C 1.99804 36.8525 -13.0403 128.67 12.7303 197.526L 15.5399 196.474C -9.88952 128.53 4.93879 37.4809 15.5769 0.413789L 12.6933 -0.413789ZM 12.7303 197.526C 25.4204 231.432 28.1013 279.056 26.2363 324.964C 24.3748 370.836 17.9904 414.744 12.6646 441.204L 15.6056 441.796C 20.9464 415.256 27.362 371.114 29.2338 325.086C 31.1022 279.094 28.4498 230.968 15.5399 196.474L 12.7303 197.526ZM 12.6549 441.257C 7.65094 471.699 1.64056 518.364 -0.113544 559.298C -0.989714 579.773 -0.798872 598.91 1.11604 613.849C 2.0787 621.338 3.50137 627.894 5.43147 633.004C 7.37166 638.129 9.92893 642.112 13.3325 644.267L 14.9377 641.733C 12.3412 640.088 10.086 636.825 8.23713 631.942C 6.37817 627.043 5.03522 620.829 4.09163 613.467C 2.19404 598.704 2.00988 579.823 2.88371 559.427C 4.62961 518.62 10.6192 472.134 15.6152 441.743L 12.6549 441.257Z"/>
</defs>
</svg>
