<?xml version="1.0" encoding="UTF-8" standalone="no"?>
<svg
   xmlns:figma="http://www.figma.com/figma/ns"
   xmlns:dc="http://purl.org/dc/elements/1.1/"
   xmlns:cc="http://creativecommons.org/ns#"
   xmlns:rdf="http://www.w3.org/1999/02/22-rdf-syntax-ns#"
   xmlns:svg="http://www.w3.org/2000/svg"
   xmlns="http://www.w3.org/2000/svg"
   xmlns:xlink="http://www.w3.org/1999/xlink"
   xmlns:sodipodi="http://sodipodi.sourceforge.net/DTD/sodipodi-0.dtd"
   xmlns:inkscape="http://www.inkscape.org/namespaces/inkscape"
   width="236.13057"
   height="163.82231"
   viewBox="0 0 236.13057 163.82231"
   version="1.1"
   id="svg4647"
   sodipodi:docname="lotus.svg"
   inkscape:version="0.92.1 r">
  <metadata
     id="metadata4651">
    <rdf:RDF>
      <cc:Work
         rdf:about="">
        <dc:format>image/svg+xml</dc:format>
        <dc:type
           rdf:resource="http://purl.org/dc/dcmitype/StillImage" />
        <dc:title>lotus</dc:title>
      </cc:Work>
    </rdf:RDF>
  </metadata>
  <sodipodi:namedview
     pagecolor="#ffffff"
     bordercolor="#666666"
     borderopacity="1"
     objecttolerance="10"
     gridtolerance="10"
     guidetolerance="10"
     inkscape:pageopacity="0"
     inkscape:pageshadow="2"
     inkscape:window-width="1567"
     inkscape:window-height="974"
     id="namedview4649"
     showgrid="false"
     fit-margin-top="0"
     fit-margin-left="0"
     fit-margin-right="0"
     fit-margin-bottom="0"
     inkscape:zoom="1.28"
     inkscape:cx="78.542919"
     inkscape:cy="-50.447726"
     inkscape:window-x="2018"
     inkscape:window-y="23"
     inkscape:window-maximized="0"
     inkscape:current-layer="Flower Timeline" />
  <title
     id="title4598">lotus</title>
  <desc
     id="desc4600">Created using Figma</desc>
  <g
     id="Flower Timeline"
     figma:type="frame"
     transform="matrix(3,0,0,3,2382.2689,2412.3319)">
    <use
       height="100%"
       width="100%"
       y="0"
       x="0"
       style="fill:#f4acb7;stroke:#ffffff;stroke-opacity:1;stroke-width:2.6773029;stroke-miterlimit:4;stroke-dasharray:none"
       id="use4607"
       transform="matrix(0.30996352,0.02836338,-0.02836338,0.30996352,-762.91866,-804.8367)"
       xlink:href="#path1_fill" />
    <use
       height="100%"
       width="100%"
       y="0"
       x="0"
       style="fill:#f4acb7;stroke:#ffffff;stroke-opacity:1;stroke-width:2.67730126;stroke-miterlimit:4;stroke-dasharray:none"
       id="use4612"
       transform="matrix(-0.29143602,0.10930247,0.10930247,0.29143602,-731.10403,-798.6118)"
       xlink:href="#path3_fill" />
    <use
       height="100%"
       width="100%"
       y="0"
       x="0"
       style="fill:#f4acb7;stroke:#ffffff;stroke-opacity:1;stroke-width:2.67730292;stroke-miterlimit:4;stroke-dasharray:none"
       id="use4617"
       transform="matrix(0.27790311,0.14018461,-0.14018461,0.27790311,-774.2714,-800.79061)"
       xlink:href="#path3_fill" />
    <use
       height="100%"
       width="100%"
       y="0"
       x="0"
       style="fill:#f4acb7;stroke:#ffffff;stroke-opacity:1;stroke-width:2.67730288;stroke-miterlimit:4;stroke-dasharray:none"
       id="use4623"
       transform="matrix(0.31125852,0,0,0.31125852,-793.93299,-787.09523)"
       xlink:href="#path3_fill" />
    <use
       height="100%"
       width="100%"
       y="0"
       x="0"
       style="fill:#f4acb7;stroke:#ffffff;stroke-opacity:1;stroke-width:2.67730288;stroke-miterlimit:4;stroke-dasharray:none"
       id="use4629"
       transform="matrix(-0.31125852,0,0,0.31125852,-715.53606,-787.09523)"
       xlink:href="#path3_fill" />
  </g>
  <defs
     id="defs4645">
    <path
       id="path0_fill"
       d="M 0,0 H 2566 V 1007 H 0 Z"
       inkscape:connector-curvature="0" />
    <path
       id="path1_fill"
       d="M 50.3932,171.681 C 20.3932,147.348 -37.3166,80.8 34.6834,3.9813e-6 52.0167,28.6667 91.9932,101.281 50.3932,171.681 Z"
       inkscape:connector-curvature="0" />
    <path
       id="path2_stroke"
       d="m 50.3932,171.681 -0.315,0.389 0.4504,0.365 0.2951,-0.499 z M 34.6834,3.9813e-6 35.1113,-0.258706 34.7608,-0.83838 34.3101,-0.332637 Z M 50.7082,171.293 C 35.7312,159.146 13.8963,136.54 4.76613,106.868 -4.35592,77.2696 -0.835885,40.6121 35.0567,0.332644 L 34.3101,-0.332637 C -1.79731,40.1879 -5.42237,77.2045 3.81048,107.163 13.0352,137.049 35.0552,159.883 50.0782,172.07 Z M 34.2555,0.258714 C 51.597,28.9389 91.399,101.304 49.9628,171.427 l 0.8609,0.509 C 92.5874,101.259 52.4364,28.3945 35.1113,-0.258706 Z"
       inkscape:connector-curvature="0" />
    <path
       id="path3_fill"
       d="m 3.6122,0 c -9.66667,32 -5.80001,100.4 87,118 92.7998,17.6 -19.3333,-71.3333 -87,-118 z"
       inkscape:connector-curvature="0" />
    <path
       id="path4_stroke"
       d="M 3.6122,0 3.89607,-0.411606 3.33178,-0.800767 3.13356,-0.144589 Z m 87,118 0.0932,-0.491 z M 3.13356,-0.144589 C -1.72758,15.9475 -3.18757,41.1817 8.23776,64.6191 19.6767,88.0844 43.9916,109.667 90.519,118.491 l 0.1864,-0.982 C 44.4328,108.733 20.4144,87.3156 9.13664,64.1809 -2.1547,41.0183 -0.71469,16.0525 4.09084,0.144589 Z M 90.519,118.491 c 11.616,2.203 20.08,2.751 25.847,1.901 5.762,-0.851 8.998,-3.134 9.806,-6.732 0.787,-3.505 -0.803,-8.037 -4.04,-13.222 C 118.884,95.2382 113.883,89.2331 107.647,82.7533 82.7272,56.8592 37.7381,22.9278 3.89607,-0.411606 L 3.32833,0.411606 C 37.153,23.7388 82.0638,57.6075 106.927,83.4467 c 6.211,6.4536 11.147,12.3776 14.357,17.5213 3.22,5.159 4.605,9.386 3.912,12.472 -0.672,2.994 -3.372,5.135 -8.976,5.962 -5.599,0.826 -13.931,0.304 -25.5146,-1.893 z"
       inkscape:connector-curvature="0" />
  </defs>
</svg>
