<?xml version="1.0" encoding="UTF-8" standalone="no"?>
<svg
   xmlns:figma="http://www.figma.com/figma/ns"
   xmlns:dc="http://purl.org/dc/elements/1.1/"
   xmlns:cc="http://creativecommons.org/ns#"
   xmlns:rdf="http://www.w3.org/1999/02/22-rdf-syntax-ns#"
   xmlns:svg="http://www.w3.org/2000/svg"
   xmlns="http://www.w3.org/2000/svg"
   xmlns:xlink="http://www.w3.org/1999/xlink"
   xmlns:sodipodi="http://sodipodi.sourceforge.net/DTD/sodipodi-0.dtd"
   xmlns:inkscape="http://www.inkscape.org/namespaces/inkscape"
   width="39.856529"
   height="771.90271"
   viewBox="0 0 39.85653 771.90271"
   version="1.1"
   id="svg5412"
   sodipodi:docname="stem.svg"
   inkscape:version="0.92.1 r">
  <metadata
     id="metadata5416">
    <rdf:RDF>
      <cc:Work
         rdf:about="">
        <dc:format>image/svg+xml</dc:format>
        <dc:type
           rdf:resource="http://purl.org/dc/dcmitype/StillImage" />
        <dc:title>Stem</dc:title>
      </cc:Work>
    </rdf:RDF>
  </metadata>
  <sodipodi:namedview
     pagecolor="#ffffff"
     bordercolor="#666666"
     borderopacity="1"
     objecttolerance="10"
     gridtolerance="10"
     guidetolerance="10"
     inkscape:pageopacity="0"
     inkscape:pageshadow="2"
     inkscape:window-width="1613"
     inkscape:window-height="988"
     id="namedview5414"
     showgrid="false"
     inkscape:zoom="3.8968008"
     inkscape:cx="4.6724926"
     inkscape:cy="439.74466"
     inkscape:window-x="1987"
     inkscape:window-y="35"
     inkscape:window-maximized="0"
     inkscape:current-layer="Current design mockup"
     inkscape:pagecheckerboard="false"
     fit-margin-top="0"
     fit-margin-left="0"
     fit-margin-right="0"
     fit-margin-bottom="0" />
  <title
     id="title5392">Stem</title>
  <desc
     id="desc5394">Created using Figma</desc>
  <rect
     style="fill:#ffffff;stroke-width:3"
     id="rect5396"
     height="1938"
     width="96"
     y="-25.148703"
     x="-289.1474" />
  <g
     figma:type="symbol"
     id="Current design mockup"
     transform="matrix(3,0,0,3,229.85257,574.85129)">
    <g
       transform="matrix(0.14660447,0,0,0.3956276,-43.437452,-111.66106)"
       id="Initial Flower"
       figma:type="frame"
       style="fill:#8a766c;fill-opacity:1;stroke:#8a766c;stroke-width:6.92041044;stroke-miterlimit:4;stroke-dasharray:none;stroke-opacity:1">
      <g
         id="Stem"
         figma:type="vector"
         style="fill:#8a766c;fill-opacity:1;stroke:#8a766c;stroke-width:6.92041044;stroke-miterlimit:4;stroke-dasharray:none;stroke-opacity:1">
        <use
           xlink:href="#path1_stroke"
           transform="translate(-171,-199)"
           id="use5401"
           style="fill:#8a766c;fill-opacity:1;stroke:#8a766c;stroke-width:6.92041044;stroke-miterlimit:4;stroke-dasharray:none;stroke-opacity:1"
           x="0"
           y="0"
           width="100%"
           height="100%" />
      </g>
    </g>
  </g>
  <defs
     id="defs5410">
    <path
       id="path0_fill"
       d="M 0,0 H 2566 V 1007 H 0 Z"
       inkscape:connector-curvature="0" />
    <path
       id="path1_stroke"
       d="m 14.1351,441.5 -1.4705,-0.296 -0.0053,0.026 -0.0044,0.027 z M 12.6933,-0.413789 C 1.99804,36.8525 -13.0403,128.67 12.7303,197.526 l 2.8096,-1.052 C -9.88952,128.53 4.93879,37.4809 15.5769,0.413789 Z M 12.7303,197.526 c 12.6901,33.906 15.371,81.53 13.506,127.438 -1.8615,45.872 -8.2459,89.78 -13.5717,116.24 l 2.941,0.592 c 5.3408,-26.54 11.7564,-70.682 13.6282,-116.71 1.8684,-45.992 -0.784,-94.118 -13.6939,-128.612 z m -0.0754,243.731 c -5.00396,30.442 -11.01434,77.107 -12.768444,118.041 -0.87617,20.475 -0.685328,39.612 1.229584,54.551 0.96266,7.489 2.38533,14.045 4.31543,19.155 1.94019,5.125 4.49746,9.108 7.90103,11.263 l 1.6052,-2.534 C 12.3412,640.088 10.086,636.825 8.23713,631.942 6.37817,627.043 5.03522,620.829 4.09163,613.467 2.19404,598.704 2.00988,579.823 2.88371,559.427 4.62961,518.62 10.6192,472.134 15.6152,441.743 Z"
       inkscape:connector-curvature="0" />
  </defs>
</svg>
